<svg id="Capa_1" data-name="Capa 1" xmlns="http://www.w3.org/2000/svg" viewBox="0 0 17.71 12.97"><defs><style>.cls-1{fill:#fff;}</style></defs><path class="cls-1" d="M16.89,3.31a5.3,5.3,0,0,0-1.1-.88A11.36,11.36,0,0,0,13,4.69l-4,4a3,3,0,0,1-4.23,0l0,0A20.47,20.47,0,0,0,2.32,6.4c-.2-.08-1,.47-1.37.88a4.55,4.55,0,0,0-.88,1.1,11.14,11.14,0,0,0,2.25,2.76l2,2A20.47,20.47,0,0,0,6.78,15.4a10.8,10.8,0,0,0,2.75-2.25l6-6a23.07,23.07,0,0,0,2.26-2.48C17.84,4.49,17.3,3.72,16.89,3.31Z" transform="translate(-0.06 -2.43)"/></svg>