<svg id="Слой_1" data-name="Слой 1" xmlns="http://www.w3.org/2000/svg" viewBox="0 0 290.22 296.8">
  <defs>
    <style>
      .cls-1 {
        fill: #ec1d25;
      }

      .cls-2 {
        fill: #ffb806;
      }

      .cls-3, .cls-9 {
        fill: #fcb505;
      }

      .cls-4 {
        fill: #542700;
      }

      .cls-5 {
        fill: #643919;
      }

      .cls-6 {
        fill: #3f2107;
      }

      .cls-7 {
        fill: #af9773;
      }

      .cls-8 {
        fill: #e45f12;
      }

      .cls-9 {
        stroke: #603813;
        stroke-miterlimit: 10;
      }

      .cls-10, .cls-11 {
        fill: #ff0;
      }

      .cls-11 {
        font-size: 65.86px;
        font-family: CooperBlack, Cooper Black;
      }
    </style>
  </defs>
  <path class="cls-1" d="M289.78,214.47l-6.84-2.37c-14.54-5-5.65-13.51-14.74-15.76-11.95-3-33.9,3.14-39.58,2.94C163.69,197,113,174.8,58.61,198.14c-19.48,8.36-30.38,15.79-47.19,12.27A17.13,17.13,0,0,0-.42,211.7c1.65,10.59.53,21.52.07,32.19-.43,9.8.86,19.59,1.09,29.38,10.79-5.44,29.34,1.23,35.92,4.45,7.58,3.72,31.19-3.9,39.43,0,2.53,1.2,3.63,4.33,3.85,8.5.91-.12,1.81-.23,2.73-.32a188.33,188.33,0,0,1,25.69-.72,190.39,190.39,0,0,1,26.22,3c2-.26,4.07-.45,6.12-.55l6.25-.17a78.28,78.28,0,0,1,9.06.41c1,.06,2.05.15,3.08.27,3-.22,6-.26,8.93-.29,1.32,0,2.67,0,4,0,25.07-10.1,48.7-16.94,63.25-12.88,5.14,1.44,8.47,12,19.18,8.65,10.16-3.23-2.27,2.24,8.62-1.86,11.59-4.36,20.17-5.92,26.41-5.54-.1-5.82-.13-11.64-.12-17.45,0-11.41.22-22.81.3-34.21C289.72,221.18,289.72,217.82,289.78,214.47Z" transform="translate(0.44)"/>
  <path class="cls-2" d="M183.71,288.61c.7,0,1.41.1,2.1.16,2.41-.12,4.82-.16,7.19-.18,1.7,0,3.45,0,5.21.09s3.3-.07,4.94-.09,3.37,0,5.09.08c.79-.21,1.6-.37,2.37-.53,1.37-.3,2.76-.52,4.16-.71,0-.2.08-.39.13-.59,1.13-5.58,4.38-21.63,5.08-29.74.75-8.79,0-26-15.71-49.59a393.31,393.31,0,0,1-57,3.19,394,394,0,0,1-55.53-4.86A99.14,99.14,0,0,0,79,230.1c-4,11.29-7.71,21.79-5.67,34.43,1.55,9.56,5.54,15.35,7.35,21.59.66-.08,1.32-.16,2-.22a188.33,188.33,0,0,1,25.69-.72,190.39,190.39,0,0,1,26.22,3c2-.26,4.07-.45,6.12-.55l6.25-.17a78.28,78.28,0,0,1,9.06.41c1,.06,2.05.15,3.08.27,3-.22,6-.26,8.93-.29a94.28,94.28,0,0,1,10.55.45C180.29,288.32,182,288.43,183.71,288.61Z" transform="translate(0.44)"/>
  <path class="cls-1" d="M154,222.86c7.76-.29,11.65-.43,16-1.24,11.38-2.11,14.23-6,27.64-9.13a90.71,90.71,0,0,1,9.95-1.71,5.13,5.13,0,0,0-.92-1.95c-2.08-2.66-6.15-2.08-6.46-2a66.72,66.72,0,0,1-10.42,2.32c-2.86.39-5.21.52-9.88.78-3,.16-5.09.22-7.56.3-8,.27-11.34.45-13.82.53a186.34,186.34,0,0,1-22.79-1c-43.56-3.77-44.87-3-45-2.36-.63,2.39,13.6,8.56,24.51,11.65a108.42,108.42,0,0,0,24,3.81C145.14,223.2,150.32,223,154,222.86Z" transform="translate(0.44)"/>
  <path id="Head" class="cls-3" d="M146.46,0A123.19,123.19,0,0,0,90.83,12.29C72,21.58,60.73,33.5,53.39,41.38c-10.8,11.59-28,30.1-34.65,59.3-1.45,6.42-11.76,55.1,16,82.08,9.16,8.89,20.38,13.42,30.27,17.41,15.93,6.42,29.48,8,41.94,9.49,7.15.84,18.29.89,40.28,1,36.16.25,41.13-.29,46.15-1.07,20.79-3.27,33.68-9.54,37-11.22,2.32-1.17,13.24-6.65,21.12-13.83C274.19,164,275.79,125.74,270.68,101c-6.91-33.55-28.5-54.13-41.05-66.09-6-5.76-16.09-15.18-32.07-23A122.89,122.89,0,0,0,146.46,0Z" transform="translate(0.44)"/>
  <g id="Ear">
    <path class="cls-4" d="M67.52,27.23a4,4,0,0,0-.59-2.74C65.18,21.59,52,12.24,42.73,11.11c-.42,0-2.75-.32-5.55-.61-2.14-.22-3.23-.34-4.32-.42A36.17,36.17,0,0,0,26.33,10a29.88,29.88,0,0,0-3.91.68c-.22.05-1.8.42-3.19.88a27.88,27.88,0,0,0-7.57,4A28.25,28.25,0,0,0,5.42,22C.15,29.74,2.78,43.5,8.71,52.66c4.81,7.43,9.11,7.35,12.22,15.26,3.26,8.27,1.53,15.92,3.06,16.14,1.16.16,2.24-4.27,4.89-9.81,1.41-2.94,1.72-2.93,12.13-17,4.59-6.19,9.46-12.83,14.75-18.44,1-1.05,1.48-1.56,1.82-1.9C63.25,31.38,67.16,30.38,67.52,27.23Z" transform="translate(0.44)"/>
    <path class="cls-3" d="M55.61,15.16,55,14.84A41,41,0,0,0,40.15,10C35,9.26,25.57,8,16.2,12.71,9,16.36,3.39,22.79,4.23,24.1c.32.49,1.48.1,6.27-1.24C22.92,19.37,25.82,18.78,29,18.81a26.37,26.37,0,0,1,7.82.92c4.32,1.27,5.35,3.17,12.39,8.08,8.1,5.67,10.55,5.9,12.14,5.81.65,0,5.71-.4,7.33-3.92a6,6,0,0,0,.4-3.39A58,58,0,0,0,55.61,15.16Z" transform="translate(0.44)"/>
  </g>
  <g id="Top_tatoo" data-name="Top tatoo">
    <path class="cls-5" d="M116.51,3.23c-.3,6.71-.58,17-.16,29.54,1,29.62,5.11,47.34,1.76,48.36-2.33.7-6.6-7.26-11.44-16.24-4.1-7.62-9.37-17.62-12.15-32.08a99.25,99.25,0,0,1-1.74-21.45A118.3,118.3,0,0,1,104.4,6.69,121.26,121.26,0,0,1,116.51,3.23Z" transform="translate(0.44)"/>
    <path class="cls-5" d="M160.77,1.08a241.55,241.55,0,0,1-1.11,40c-.95,8.51-5.2,46.71-12.91,47.05C140.27,88.45,133,61.81,131,41.22A141.58,141.58,0,0,1,133,.43a134,134,0,0,1,14.9-.36C152.56.21,156.85.58,160.77,1.08Z" transform="translate(0.44)"/>
    <path class="cls-5" d="M200.79,13.54c-.69,3.2-1.71,7.87-3,13.51-2.34,10-3.49,15-4.77,19.06-3.13,9.8-6.38,16.09-10.72,24.49-5.09,9.85-6.49,10.72-7.27,10.53-2-.5-1.7-8.53-1.57-11.65C174.09,54,174.93,32,176,4.05a113.23,113.23,0,0,1,24.78,9.49Z" transform="translate(0.44)"/>
  </g>
  <g id="Left_tatoo" data-name="Left tatoo">
    <path class="cls-5" d="M61.75,118.83c-.82-1.73-8.59,1.41-16.23,1.72-5.31.21-12.79-.86-22.05-6.66A18.13,18.13,0,0,0,20.7,113a32.38,32.38,0,0,0-3.94-.86c-.43,3.33-.77,7-.94,10.85s-.17,7.79,0,11.26a56,56,0,0,0,17.45-.14,50.85,50.85,0,0,0,14.3-4.39,56.49,56.49,0,0,0,12.34-7.78C61,120.9,62.11,119.59,61.75,118.83Z" transform="translate(0.44)"/>
    <path class="cls-5" d="M57.4,138.45c-1.3-.62-3.29,5.05-9.49,8.83-3.77,2.31-7.27,2.75-14.27,3.64a89.36,89.36,0,0,1-15.57.59,68.67,68.67,0,0,0,7.56,19.56,75.43,75.43,0,0,0,13.09-5.19c5.79-2.94,9.39-4.83,12.71-8.95a28,28,0,0,0,4.89-9.39C57.27,144.72,58.67,139.05,57.4,138.45Z" transform="translate(0.44)"/>
    <path class="cls-5" d="M33.26,181.25c3.92-.41,7.18-1,9.6-1.49a30.69,30.69,0,0,0,6.57-1.89,15.8,15.8,0,0,0,5.26-3.2c3.08-3,3.43-6.86,4.14-6.72.54.12.54,2.36.49,3.33a21.6,21.6,0,0,1-1.5,6.78,27.12,27.12,0,0,1-4.07,7,28,28,0,0,1-7.36,6.44,62.17,62.17,0,0,1-6-3.94A60.4,60.4,0,0,1,33.26,181.25Z" transform="translate(0.44)"/>
  </g>
  <g id="Air">
    <path id="Air-2" data-name="Air" class="cls-6" d="M90.54,88.07c-4.53,1.42-7,4.58-8.73,6.78a25.7,25.7,0,0,0-5,11.41c-.65,3.43-1.94,10.14,1.76,16.83.91,1.64,4.46,8,11.71,9.49,3.8.75,9.35.29,12.47-3.1,1-1.09,1.69-2.49,3.07-5.28a46.3,46.3,0,0,0,2.47-6.13,46.92,46.92,0,0,0,1.5-6.07,38.88,38.88,0,0,0,1-8.67c0-3.25-.07-5.53-1.36-8a14.36,14.36,0,0,0-7.24-6.26A16.59,16.59,0,0,0,90.54,88.07Z" transform="translate(0.44)"/>
    <path class="cls-7" d="M97.12,106.59c-1.93,0-3.1,2.38-3.8,3.81a9.52,9.52,0,0,0-.82,6c.13.64,1,4.77,3.29,5.15,2.13.35,4.2-2.68,5-4.63a9.52,9.52,0,0,0,0-6.76C100.12,108.09,98.63,106.61,97.12,106.59Z" transform="translate(0.44)"/>
  </g>
  <path id="Nouse" class="cls-5" d="M148,120.62a29.64,29.64,0,0,0-5.86.19c-2.66.38-8.75,1.26-12.51,6.26-.49.64-4.33,5.89-2.68,11.28.75,2.43,1.81,2.26,11.28,10,4.05,3.3,5.51,4.67,8,4.69,1.94,0,3.32-.84,6.74-3.36,7.79-5.74,11.7-8.67,12.46-11.3,1.61-5.55-1.63-10.52-1.86-10.86-2.57-3.81-6.49-5.1-8.56-5.78A25.76,25.76,0,0,0,148,120.62Z" transform="translate(0.44)"/>
  <g>
    <path class="cls-8" d="M146.25,186.41c5.16.1,9.74-5.73,10.54-10.92a11.81,11.81,0,0,0,0-3.63l-20.64-.11C135.31,180.06,141,186.31,146.25,186.41Z" transform="translate(0.44)"/>
    <path class="cls-9" d="M117.47,165.2a22.11,22.11,0,0,0,12.08,5.58,22.92,22.92,0,0,0,6.15-.07l19.52.09a51.29,51.29,0,0,0,12.5-1.05,11.64,11.64,0,0,0,4-1.71,11,11,0,0,0,2.93-3" transform="translate(0.44)"/>
    <path class="cls-9" d="M146.22,152.77l.27,17.94" transform="translate(0.44)"/>
  </g>
  <g id="Right_tatoo" data-name="Right tatoo">
    <path class="cls-5" d="M235.43,119c1.23-2,9,3.77,18.77,2.15.47-.07,3-.67,8.11-1.86,1.83-.42,3.38-1,6.06-1.66,1.86-.45,3.39-.76,4.42-1a98,98,0,0,1,.37,9.86c0,3.32-.24,6.4-.54,9.21a48.74,48.74,0,0,1-8.84-.06,47.76,47.76,0,0,1-13.1-3.18,44.13,44.13,0,0,1-6.55-3.33c-5.14-3.15-6.8-5.59-7.53-6.84C235.59,120.57,235,119.61,235.43,119Z" transform="translate(0.44)"/>
    <path class="cls-5" d="M238.07,139.42c1.67-1.43,7.81,4.88,18.11,8.58,2.63.95,5.13,1.57,5.43,1.65a56,56,0,0,0,8.51,1.41,76.35,76.35,0,0,1-2.69,8.92,80.64,80.64,0,0,1-3.24,7.58,64.09,64.09,0,0,1-6.28-3c-3.74-2-8-4.38-12.12-8.8a32.59,32.59,0,0,1-6-9C238.54,143.86,237,140.35,238.07,139.42Z" transform="translate(0.44)"/>
    <path class="cls-5" d="M258.6,176.6c-1.12-.23-2.63-.58-4.4-1.08,0,0-3.19-.91-5.77-2-6.82-2.77-9.77-8.09-11.07-7.33s.25,6,2.27,10.07a32,32,0,0,0,8.86,10.86,47.79,47.79,0,0,0,4.49-4A51.26,51.26,0,0,0,258.6,176.6Z" transform="translate(0.44)"/>
  </g>
  <g id="Air-3" data-name="Air">
    <path id="Air-4" data-name="Air" class="cls-6" d="M193.46,92c-4.52,1.43-7,4.58-8.73,6.78a25.51,25.51,0,0,0-4.95,11.42c-.66,3.42-1.95,10.13,1.76,16.82.9,1.64,4.45,8,11.71,9.49,3.79.75,9.34.3,12.47-3.1,1-1.09,1.68-2.49,3.06-5.28a45,45,0,0,0,2.48-6.13,50.49,50.49,0,0,0,1.5-6.07,40,40,0,0,0,1-8.67c-.05-3.25-.08-5.53-1.37-8A14.39,14.39,0,0,0,205.2,93,16.63,16.63,0,0,0,193.46,92Z" transform="translate(0.44)"/>
    <path class="cls-7" d="M200.05,110.55c-1.94,0-3.11,2.38-3.81,3.81a9.52,9.52,0,0,0-.82,6c.13.65,1,4.77,3.29,5.15,2.13.35,4.2-2.68,5-4.63a9.56,9.56,0,0,0,0-6.76C203,112.05,201.55,110.57,200.05,110.55Z" transform="translate(0.44)"/>
  </g>
  <g id="Ear-2" data-name="Ear">
    <path class="cls-4" d="M222,27.86a4,4,0,0,1,.58-2.74c1.75-2.9,14.89-12.25,24.2-13.38.42-.05,2.75-.32,5.55-.61,2.14-.22,3.23-.34,4.32-.41a35.37,35.37,0,0,1,6.53-.1,29.88,29.88,0,0,1,3.91.68c.22,0,1.8.42,3.2.88a29,29,0,0,1,13.8,10.4c5.27,7.79,2.64,21.55-3.29,30.71-4.81,7.43-9.11,7.35-12.22,15.26-3.26,8.27-1.53,15.92-3.05,16.14-1.17.16-2.24-4.27-4.9-9.81-1.4-2.93-1.72-2.93-12.12-17-4.59-6.19-9.46-12.83-14.76-18.44-1-1-1.48-1.56-1.82-1.9C226.29,32,222.38,31,222,27.86Z" transform="translate(0.44)"/>
    <path class="cls-3" d="M233.94,15.79l.56-.32a42.6,42.6,0,0,1,14.9-4.85c4.34-.62,14.31-2,23.91,2.69a29,29,0,0,1,6.36,4.27c3.74,3.31,7,8,6.24,8.87-.54.6-2.49-1.12-6.87-3a45.82,45.82,0,0,0-18.51-4,26,26,0,0,0-7.82.91c-3.89,1.15-5.16,2.82-12.39,8.09-7.88,5.74-9.74,6.26-11.64,6.2-2.5-.08-6.47-1.19-7.83-4.32a6.24,6.24,0,0,1-.39-3.39A57.79,57.79,0,0,1,233.94,15.79Z" transform="translate(0.44)"/>
  </g>
  <path class="cls-3" d="M.79,25.47" transform="translate(0.44)"/>
  <path class="cls-3" d="M283,26.33" transform="translate(0.44)"/>
  <path class="cls-10" d="M152.85,219.15l6.32-5.55-8.75-.8q-1.3-4.16-2.59-8.33l-3.58,8h-9l6.52,5.73c-1,2.78-1.91,5.57-2.87,8.36l7.89-4.37,7.52,5.32C153.83,224.74,153.34,221.94,152.85,219.15Z" transform="translate(0.44)"/>
  <path class="cls-3" d="M215.29,52.66" transform="translate(0.44)"/>
  <text class="cls-11" transform="translate(93.93 280.27)">ISL</text>
</svg>
