<svg id="Слой_1" data-name="Слой 1" xmlns="http://www.w3.org/2000/svg" viewBox="0 0 373.75 273.06"><defs><style>.cls-1{fill:#ec1d25;}.cls-2{fill:#ffb806;}.cls-3,.cls-9{fill:#fcb505;}.cls-4{fill:#542700;}.cls-5{fill:#643919;}.cls-6{fill:#3f2107;}.cls-7{fill:#af9773;}.cls-8{fill:#e45f12;}.cls-9{stroke:#603813;stroke-miterlimit:10;}.cls-10,.cls-11{fill:#ff0;}.cls-11{font-size:50.28px;font-family:CooperBlack, Cooper Black;}</style></defs><path class="cls-1" d="M219.93,161.31a94.86,94.86,0,0,1,20.58,2.62c6.94,1.72,9.8,3.32,20.91,7.17,10.42,3.61,15.62,5.41,20,6.27,8.38,1.65,23.15,4.54,35.84-2.39,10.26-5.59,14.06-14.81,19.72-13.14,2.73.81,4.1,3.62,5.08,5.68,7.08,15-5.46,34.65-8.07,38.53a66.34,66.34,0,0,1-16.43,16.73c-10.39,7.41-13.26,4.94-27.18,12.84-14.56,8.27-14.58,12.77-24.19,14.64-8.86,1.72-11.09-1.66-19.42,1.19s-9.26,7.39-17,9.86c-8.17,2.6-15.48.2-19.41-.9-28-7.8-85.22-4.21-108.13.4-4.5.91-13.7,3.07-22.7-1.19-6.3-3-5.83-5.94-12-8-7.88-2.6-11,1.51-22.7-.79a39.59,39.59,0,0,1-10.16-3.39,37.48,37.48,0,0,1-10.35-7.77C13.94,229.05,2.14,229.86-10.5,218-23.56,205.75-26.08,190.71-29,173.19c-.62-3.66-1.08-7.68,1-9.16C-24,161.15-16,172,.22,177.3A61.64,61.64,0,0,0,31.12,179c9.24-1.82,12.22-4.74,22.9-9.16,11.8-4.89,20.68-6.53,36-9.37C134.51,152.24,170.33,159.54,219.93,161.31Z" transform="translate(29.54 -9.18)"/><path class="cls-2" d="M115.35,166.32a75.13,75.13,0,0,0-9.71,18.52c-3.07,8.62-5.89,16.63-4.33,26.29,1.82,11.26,8.11,15.68,5.83,25.09-.47,1.94-.89,2.38-2.34,7.47-2.41,8.43-1.74,8.93-3.39,13.74-2.39,7-4.28,7.36-5.18,12.84-.59,3.64-1.17,7.19.8,9.66,1.82,2.27,4.89,2.48,16.93,2.23,5.23-.11,9.79-.25,13.49-.39,4.24-4.74,7.35-8.79,9.41-11.6,3.31-4.52,4-6,6.27-7.07,3.7-1.77,5.17.41,13-.1,5.73-.37,7.4-1.68,10.41-.35,2.54,1.13,3.74,3.13,5.13,5.13a68.36,68.36,0,0,0,11.6,12.8l31.66.3c2.61-6.32,1.85-9.56.69-11.35-1.42-2.19-3.48-2.29-5.53-5.25-1.33-1.92-1.75-3.74-2.31-7.14-.6-3.63-1.26-8.44-1.66-14.25.83-3.44,2-8.53,3.28-14.74.87-4.26,3.35-16.5,3.89-22.7.57-6.7,0-19.82-12-37.85A302.33,302.33,0,0,1,157.76,170,300.38,300.38,0,0,1,115.35,166.32Z" transform="translate(29.54 -9.18)"/><path class="cls-1" d="M162.89,179.32c5.94-.23,8.9-.34,12.2-.95,8.69-1.61,10.87-4.61,21.11-7a70.28,70.28,0,0,1,7.6-1.31,3.83,3.83,0,0,0-.7-1.49c-1.59-2-4.7-1.59-4.93-1.55a49.74,49.74,0,0,1-8,1.77c-2.19.3-4,.4-7.55.6-2.32.12-3.89.17-5.78.23-6.1.2-8.66.34-10.55.4a142.24,142.24,0,0,1-17.41-.74c-33.27-2.88-34.28-2.28-34.4-1.8-.48,1.82,10.39,6.54,18.72,8.89a83.7,83.7,0,0,0,18.29,2.92C156.16,179.57,160.11,179.42,162.89,179.32Z" transform="translate(29.54 -9.18)"/><path id="Head" class="cls-3" d="M157.17,9.2a94,94,0,0,0-42.49,9.36c-14.35,7.09-23,16.19-28.6,22.21-8.25,8.85-21.43,23-26.47,45.27-1.1,4.9-9,42.06,12.23,62.66C78.83,155.49,87.41,159,95,162c12.17,4.9,22.52,6.12,32,7.24,5.46.65,14,.69,30.76.8,27.62.19,31.42-.22,35.25-.82,15.88-2.5,25.73-7.28,28.28-8.56,1.78-.9,10.11-5.08,16.13-10.56,17.31-15.74,18.53-44.92,14.63-63.85-5.28-25.61-21.77-41.32-31.36-50.45A93,93,0,0,0,196.2,18.26,93.84,93.84,0,0,0,157.17,9.2Z" transform="translate(29.54 -9.18)"/><g id="Ear"><path class="cls-4" d="M96.87,30a3.05,3.05,0,0,0-.45-2.09c-1.34-2.21-11.37-9.34-18.48-10.21l-4.24-.47c-1.64-.17-2.47-.25-3.3-.31a27.34,27.34,0,0,0-5-.08,23.18,23.18,0,0,0-3,.53c-.16,0-1.37.31-2.44.67a20.89,20.89,0,0,0-5.78,3.09,21.57,21.57,0,0,0-4.76,4.84c-4,5.95-2,16.46,2.51,23.45,3.67,5.67,7,5.61,9.34,11.65,2.48,6.31,1.16,12.15,2.33,12.32.89.13,1.71-3.26,3.74-7.49,1.07-2.24,1.31-2.24,9.26-13A155.65,155.65,0,0,1,87.89,38.84c.75-.8,1.13-1.2,1.39-1.45C93.61,33.13,96.6,32.37,96.87,30Z" transform="translate(29.54 -9.18)"/><path class="cls-3" d="M87.77,20.75l-.43-.24A31.41,31.41,0,0,0,76,16.8c-4-.55-11.13-1.55-18.29,2.08-5.5,2.79-9.79,7.7-9.14,8.69.24.38,1.13.09,4.79-.94C62.8,24,65,23.51,67.46,23.54a19.65,19.65,0,0,1,6,.7c3.3,1,4.09,2.42,9.46,6.17,6.19,4.33,8.06,4.5,9.27,4.43.5,0,4.37-.3,5.6-3a4.42,4.42,0,0,0,.31-2.58A44.15,44.15,0,0,0,87.77,20.75Z" transform="translate(29.54 -9.18)"/></g><g id="Top_tatoo" data-name="Top tatoo"><path class="cls-5" d="M134.29,11.65c-.23,5.12-.44,13-.12,22.55.76,22.61,3.9,36.14,1.34,36.91-1.77.54-5-5.54-8.73-12.4-3.13-5.81-7.16-13.45-9.28-24.49a75.87,75.87,0,0,1-1.34-16.37,91.2,91.2,0,0,1,18.13-6.2Z" transform="translate(29.54 -9.18)"/><path class="cls-5" d="M168.1,10a184.14,184.14,0,0,1-.85,30.57c-.72,6.5-4,35.66-9.86,35.92-4.95.22-10.49-20.13-12-35.85A108.12,108.12,0,0,1,146.91,9.5a103.57,103.57,0,0,1,11.38-.27C161.83,9.34,165.11,9.62,168.1,10Z" transform="translate(29.54 -9.18)"/><path class="cls-5" d="M198.66,19.51c-.52,2.45-1.3,6-2.3,10.32-1.78,7.64-2.66,11.47-3.64,14.55-2.39,7.48-4.87,12.28-8.19,18.7-3.89,7.52-5,8.18-5.55,8-1.56-.38-1.3-6.51-1.2-8.89.49-11.79,1.14-28.64,2-49.95a85.35,85.35,0,0,1,10.7,3.47A84.35,84.35,0,0,1,198.66,19.51Z" transform="translate(29.54 -9.18)"/></g><g id="Left_tatoo" data-name="Left tatoo"><path class="cls-5" d="M92.46,99.9c-.62-1.32-6.55,1.07-12.39,1.3-4.06.17-9.78-.65-16.84-5.07a12.66,12.66,0,0,0-2.12-.7,26.36,26.36,0,0,0-3-.66c-.33,2.55-.59,5.32-.72,8.28s-.13,6,0,8.6a43,43,0,0,0,13.32-.1,38.82,38.82,0,0,0,10.92-3.36A43,43,0,0,0,91,102.25C91.86,101.48,92.74,100.48,92.46,99.9Z" transform="translate(29.54 -9.18)"/><path class="cls-5" d="M89.14,114.87c-1-.47-2.51,3.86-7.24,6.75-2.89,1.76-5.56,2.09-10.91,2.77a67.29,67.29,0,0,1-11.89.45A51.45,51.45,0,0,0,61.59,133a52.92,52.92,0,0,0,3.28,6.8,58,58,0,0,0,10-4c4.42-2.25,7.16-3.7,9.7-6.84a21.55,21.55,0,0,0,3.74-7.16C89,119.66,90.11,115.33,89.14,114.87Z" transform="translate(29.54 -9.18)"/><path class="cls-5" d="M70.7,147.55c3-.32,5.49-.76,7.34-1.14a22.67,22.67,0,0,0,5-1.45,12,12,0,0,0,4-2.43c2.36-2.33,2.62-5.24,3.17-5.13s.41,1.79.37,2.54a16.27,16.27,0,0,1-1.15,5.17,20.46,20.46,0,0,1-3.11,5.36,21.3,21.3,0,0,1-5.61,4.91,43.47,43.47,0,0,1-4.57-3A45.79,45.79,0,0,1,70.7,147.55Z" transform="translate(29.54 -9.18)"/></g><g id="Air"><path id="Air-2" data-name="Air" class="cls-6" d="M114.46,76.41a13.55,13.55,0,0,0-6.68,5.18A19.58,19.58,0,0,0,104,90.3c-.5,2.62-1.48,7.74,1.34,12.85.7,1.25,3.41,6.14,9,7.24,2.9.58,7.14.23,9.52-2.36a16.89,16.89,0,0,0,2.34-4,33.73,33.73,0,0,0,1.9-4.68,37.16,37.16,0,0,0,1.14-4.63,30,30,0,0,0,.8-6.62c0-2.48-.06-4.22-1.05-6.12a11,11,0,0,0-5.52-4.78A12.69,12.69,0,0,0,114.46,76.41Z" transform="translate(29.54 -9.18)"/><path class="cls-7" d="M119.48,90.55c-1.47,0-2.37,1.82-2.9,2.91a7.17,7.17,0,0,0-.63,4.61c.1.49.74,3.64,2.51,3.93s3.21-2,3.81-3.53a7.27,7.27,0,0,0,0-5.16C121.77,91.7,120.63,90.56,119.48,90.55Z" transform="translate(29.54 -9.18)"/></g><path id="Nouse" class="cls-5" d="M158.36,101.26a23.47,23.47,0,0,0-4.48.14c-2,.3-6.68,1-9.55,4.78-.37.49-3.31,4.5-2.05,8.62.57,1.85,1.38,1.72,8.62,7.61C154,124.93,155.11,126,157,126c1.48,0,2.54-.64,5.14-2.56,6-4.38,8.94-6.61,9.52-8.63,1.23-4.23-1.25-8-1.42-8.28a11.81,11.81,0,0,0-6.54-4.42A20,20,0,0,0,158.36,101.26Z" transform="translate(29.54 -9.18)"/><path class="cls-8" d="M157,151.49c3.94.07,7.44-4.38,8.05-8.34a8.76,8.76,0,0,0,0-2.77l-15.76-.08C148.65,146.64,153,151.41,157,151.49Z" transform="translate(29.54 -9.18)"/><path class="cls-9" d="M135,135.29a16.53,16.53,0,0,0,3.61,2.52,17,17,0,0,0,5.61,1.74,17.23,17.23,0,0,0,4.7-.05l14.91.07a39.45,39.45,0,0,0,9.55-.8,9,9,0,0,0,3-1.3,8.55,8.55,0,0,0,2.24-2.29" transform="translate(29.54 -9.18)"/><path class="cls-9" d="M157,125.8q.1,6.86.2,13.7" transform="translate(29.54 -9.18)"/><g id="Right_tatoo" data-name="Right tatoo"><path class="cls-5" d="M225.12,100c.95-1.53,6.87,2.87,14.34,1.64.36-.06,2.31-.51,6.2-1.42,1.4-.32,2.58-.77,4.63-1.27,1.42-.34,2.59-.58,3.37-.73.2,2.29.32,4.81.29,7.53,0,2.53-.19,4.88-.41,7a37.92,37.92,0,0,1-6.76-.05,36.6,36.6,0,0,1-10-2.42,36.18,36.18,0,0,1-5-2.54c-3.92-2.41-5.19-4.28-5.75-5.23C225.25,101.22,224.83,100.49,225.12,100Z" transform="translate(29.54 -9.18)"/><path class="cls-5" d="M227.14,115.62c1.28-1.1,6,3.72,13.84,6.55,2,.72,3.91,1.19,4.15,1.25a41.91,41.91,0,0,0,6.5,1.08,60.47,60.47,0,0,1-2.06,6.81,58.61,58.61,0,0,1-2.48,5.78,49.52,49.52,0,0,1-4.79-2.28,33.35,33.35,0,0,1-9.26-6.72,25,25,0,0,1-4.55-6.87C227.5,119,226.31,116.32,227.14,115.62Z" transform="translate(29.54 -9.18)"/><path class="cls-5" d="M242.82,144c-.85-.17-2-.43-3.36-.82,0,0-2.44-.69-4.4-1.49-5.22-2.12-7.46-6.18-8.46-5.6s.19,4.57,1.74,7.69a24.54,24.54,0,0,0,6.76,8.29,40,40,0,0,0,3.44-3A38.16,38.16,0,0,0,242.82,144Z" transform="translate(29.54 -9.18)"/></g><g id="Air-3" data-name="Air"><path id="Air-4" data-name="Air" class="cls-6" d="M193.07,79.44a13.46,13.46,0,0,0-6.67,5.17,19.6,19.6,0,0,0-3.78,8.72c-.5,2.61-1.49,7.73,1.34,12.84.69,1.25,3.4,6.14,8.95,7.24,2.9.58,7.14.23,9.52-2.36a17,17,0,0,0,2.34-4,34.44,34.44,0,0,0,1.89-4.68,36.55,36.55,0,0,0,1.15-4.63,30.14,30.14,0,0,0,.79-6.62c0-2.49-.06-4.23-1-6.13A11,11,0,0,0,202,80.18,12.7,12.7,0,0,0,193.07,79.44Z" transform="translate(29.54 -9.18)"/><path class="cls-7" d="M198.1,93.58c-1.48,0-2.37,1.81-2.9,2.9a7.21,7.21,0,0,0-.63,4.61c.1.5.73,3.65,2.51,3.94,1.63.26,3.21-2,3.81-3.54a7.32,7.32,0,0,0,0-5.16C200.39,94.72,199.25,93.59,198.1,93.58Z" transform="translate(29.54 -9.18)"/></g><g id="Ear-2" data-name="Ear"><path class="cls-4" d="M214.89,30.45a3,3,0,0,1,.45-2.1c1.33-2.21,11.37-9.34,18.48-10.21.32,0,2.1-.24,4.24-.46,1.63-.18,2.47-.26,3.3-.32a28.27,28.27,0,0,1,5-.08,23,23,0,0,1,3,.53c.17,0,1.38.31,2.44.67a21.21,21.21,0,0,1,5.78,3.09,21.44,21.44,0,0,1,4.77,4.84c4,5.95,2,16.46-2.51,23.45-3.67,5.67-7,5.61-9.34,11.65-2.49,6.32-1.16,12.15-2.33,12.32-.89.13-1.71-3.26-3.74-7.49-1.07-2.24-1.31-2.24-9.26-12.94a156.13,156.13,0,0,0-11.27-14.08c-.76-.8-1.14-1.2-1.39-1.45C218.15,33.61,215.16,32.85,214.89,30.45Z" transform="translate(29.54 -9.18)"/><path class="cls-3" d="M224,21.24a4.19,4.19,0,0,1,.43-.25,32.5,32.5,0,0,1,11.38-3.71c3.31-.46,10.93-1.54,18.26,2.06a22.07,22.07,0,0,1,4.86,3.26c2.86,2.53,5.37,6.1,4.77,6.77-.42.46-1.9-.86-5.25-2.26A35.22,35.22,0,0,0,244.3,24a20.4,20.4,0,0,0-6,.7c-3,.88-3.93,2.16-9.45,6.17-6,4.39-7.44,4.78-8.9,4.74-1.91-.06-4.94-.91-6-3.3a4.83,4.83,0,0,1-.3-2.58A44.07,44.07,0,0,1,224,21.24Z" transform="translate(29.54 -9.18)"/></g><path class="cls-3" d="M45.9,28.62" transform="translate(29.54 -9.18)"/><path class="cls-3" d="M261.43,29.28" transform="translate(29.54 -9.18)"/><path class="cls-10" d="M162.05,176.48l4.83-4.23-6.69-.61-2-6.36q-1.38,3.06-2.74,6.12h-6.87l5,4.37c-.73,2.13-1.47,4.26-2.2,6.38l6-3.33,5.75,4.06C162.79,180.75,162.42,178.61,162.05,176.48Z" transform="translate(29.54 -9.18)"/><path class="cls-3" d="M209.74,49.38" transform="translate(29.54 -9.18)"/><text class="cls-11" transform="translate(146.25 218.43)">ISL</text></svg>