<svg id="Capa_1" data-name="Capa 1" xmlns="http://www.w3.org/2000/svg" viewBox="0 0 593.33 593.82"><defs><style>.cls-1{fill:#fff;}</style></defs><g id="_8" data-name="8"><path class="cls-1" d="M448.19,344.89a55.16,55.16,0,0,1,0-77.78l95.57-95.57c21.39-21.39,47.71-62,58.49-90.28,0,0,8.93-23.39-19.6-51.91s-51.91-19.6-51.91-19.6c-28.27,10.78-68.89,37.1-90.28,58.49l-95.57,95.57a55.16,55.16,0,0,1-77.78,0L173.37,70.07c-21.39-21.39-62-47.72-90.28-58.5,0,0-23.39-8.92-51.92,19.6s-19.6,51.92-19.6,51.92c10.78,28.26,37.1,68.89,58.49,90.28l93.75,93.74a55.16,55.16,0,0,1,0,77.78L70.9,437.8c-21.39,21.39-47.71,62-58.49,90.27,0,0-8.92,23.39,19.6,51.92s51.92,19.6,51.92,19.6c28.26-10.78,68.89-37.1,90.28-58.49l92.9-92.91a55.16,55.16,0,0,1,77.78,0l94.24,94.24c21.39,21.39,62,47.71,90.28,58.49,0,0,23.39,8.93,51.91-19.6s19.6-51.91,19.6-51.91c-10.78-28.27-37.1-68.89-58.49-90.28Z" transform="translate(-10.25 -8.42)"/></g></svg>