<svg id="Слой_1" data-name="Слой 1" xmlns="http://www.w3.org/2000/svg" viewBox="0 0 505.89 506.01"><defs><style>.cls-1{fill:#fff;}</style></defs><path class="cls-1" d="M497.39,312.76a232.65,232.65,0,0,0,5.53-51c0-131.38-108-238-241.41-238a250,250,0,0,0-41.24,3.43A139.55,139.55,0,0,0,145.94,6C68.72,6,6,67.79,6,144a135.08,135.08,0,0,0,19.24,69.84,238.71,238.71,0,0,0-4.88,47.84c0,131.51,108.06,238,241.28,238a241.94,241.94,0,0,0,44.15-3.95A141.63,141.63,0,0,0,371.94,512c77.35,0,139.94-61.8,139.94-138a133.43,133.43,0,0,0-14.49-61.27Zm-112,62.59c-11.2,15.55-27.67,27.94-49,36.63s-46.52,13-75.51,13c-34.65,0-63.64-6.06-86.44-17.92a114.28,114.28,0,0,1-39.8-34.79c-10.28-14.5-15.42-29-15.42-43,0-8.7,3.43-16.21,10-22.53,6.59-6.06,15.15-9.23,25.17-9.23,8.3,0,15.42,2.37,21.21,7.25,5.54,4.61,10.28,11.46,14.1,20.43,4.35,9.61,9,17.78,14,24.24q7.13,9.3,20.16,15.42c8.83,4.08,20.56,6.19,35.06,6.19,19.89,0,36.23-4.21,48.49-12.52,12.12-8,17.92-17.79,17.92-29.65,0-9.35-3-16.73-9.36-22.53-6.58-6.06-15.15-10.8-25.82-14-10.94-3.42-25.83-7-44.28-10.8-25-5.27-46.25-11.6-63.25-18.71-17.26-7.25-31.23-17.4-41.51-29.92-10.41-12.78-15.55-28.86-15.55-47.7a76.65,76.65,0,0,1,16.34-48.1c10.81-13.83,26.49-24.64,46.91-32,20-7.38,43.88-11.07,70.76-11.07,21.62,0,40.46,2.51,56.27,7.25s29.26,11.46,39.93,19.63,18.45,16.87,23.46,26,7.51,18.32,7.51,27.15c0,8.43-3.3,16.21-9.89,22.93A33.48,33.48,0,0,1,352,207.34c-9,0-15.94-2.11-20.82-6.33-4.48-3.95-9.22-10-14.36-18.84-6.07-11.2-13.31-20.16-21.61-26.49-8.17-6.06-21.62-9.22-40.33-9.22-17.26,0-31.36,3.42-41.77,10.14-10,6.46-14.89,14-14.89,22.8a20.7,20.7,0,0,0,4.87,13.84A43.31,43.31,0,0,0,217.5,204a101.52,101.52,0,0,0,19.37,7.38c6.72,1.85,17.92,4.61,33.34,8,19.63,4.09,37.55,8.83,53.37,13.7,16.07,5.14,29.91,11.34,41.24,18.58a82.33,82.33,0,0,1,27.28,28.34c6.46,11.33,9.75,25.56,9.75,41.9a84.79,84.79,0,0,1-16.47,53.37Z" transform="translate(-6 -5.99)"/></svg>